#!OML:ASF F:\VICON\USERDATA\INSTALL\rory3\rory3.ASF
:FULLY-SPECIFIED
:DEGREES
10
root -0.051823277602528944 17.924267317414323 -23.90467112965252 3.803166961691076 -0.21966629892098977 -6.107492497145656
lfemur -45.0210365666495 6.572777397899527 -14.69191762813347
ltibia 81.58364190512023
lfoot -4.810406041511276 -3.7192406361003183
ltoes -4.727122724060556
rfemur -6.1525294502469965 4.7010459940700535 36.834565244372875
rtibia 51.34437395200763
rfoot -10.524981968325442 -7.665315551119841
rtoes 6.081838903445978
lowerback 17.736571521591152 1.3915037949604512 6.043840063751271
upperback -0.6130224427107538 3.0598782136735148 3.289920859343746
thorax -10.331501763737332 1.2683337430788473 -1.749191910067426
lowerneck -21.31997705650923 -4.560318768477023 -1.748436748181043
upperneck 14.437510842036984 -5.981327628873336 2.075928201037125
head 7.901399426686382 -2.8785464623609744 0.2991200773241578
lclavicle -1.7288340728519797e-15 1.7836277228893164e-15
lhumerus -59.74361608100262 -15.95794740860085 101.02461940759895
lradius 110.73969630060837
lwrist 34.452105735670905
lhand -24.959552132898228 2.0885280686806094
lfingers 7.12502
lthumb 1.5505679889738266 32.06314379836662
rclavicle -1.7288340728519797e-15 1.7836277228893164e-15
rhumerus -39.32953702840944 16.301370186387146 -100.107196116596
rradius 116.9844869349829
rwrist -14.372711872691582
rhand -19.930179030952242 39.803218437956474
rfingers 7.12502
rthumb 6.407155384349556 10.001728411043576
11
root -0.030376008775636426 17.741791257677882 -22.97971150644519 5.237533810372761 -0.7459013497506098 -6.7738481675757445
lfemur -46.44930255726403 3.8979402378743777 -13.04821032142301
ltibia 63.698190085293525
lfoot -7.585877628858941 -0.40966797946281464
ltoes -11.824279326761575
rfemur -0.9803507227021484 4.9644247139510345 37.74962219828154
rtibia 47.596587985965314
rfoot -11.8128548369629 -8.063766323657617
rtoes 4.594142352737147
lowerback 16.15281385303941 1.5645016278025619 6.973314505883787
upperback -1.395630364878734 3.3944488299122515 3.4762499160612164
thorax -10.143446845873315 1.3894290553569002 -2.337849781360721
lowerneck -18.90948363440388 -4.134666904756935 -1.84740884222256
upperneck 13.548724831714221 -5.230768342928457 1.9341377831879747
head 7.507402635700595 -2.592662020523751 0.3339346754103005
lclavicle -1.7288340784291468e-15 1.7836276971593562e-15
lhumerus -63.27156737553395 -13.553343460906852 99.99333520649249
lradius 109.26722525499683
lwrist 33.79937853527512
lhand -24.888196154724714 1.7406792751453488
lfingers 7.12502
lthumb 1.6194620810952813 31.71668365025628
rclavicle -1.7288340784291468e-15 1.7836276971593562e-15
rhumerus -36.79749162270329 18.50685533230098 -100.77261818010179
rradius 119.04219130489834
rwrist -15.122589048371886
rhand -20.02342478458264 40.38015497269047
rfingers 7.12502
rthumb 6.317073221162179 10.567994040457357
12
root 0.0022724763402945103 17.433647722839925 -22.02339362879612 6.526547450267511 -2.68806870255774 -7.36490382644787
lfemur -44.51407124488323 0.4666552320441259 -10.662536262658
ltibia 42.954856998677755
lfoot -4.290141224373326 2.462092043769279
ltoes -4.155275477137691
rfemur 4.655734721862345 5.693267936892207 38.35156584951655
rtibia 44.19096463354152
rfoot -13.329743388371947 -7.296202979061748
rtoes -2.173152723993707
lowerback 15.620082806482952 2.260772297531075 7.819200077110523
upperback -1.8471803244165388 4.475133624823367 3.314320768045283
thorax -9.994595503790087 1.832584426926171 -3.33183098459885
lowerneck -18.61258515235355 -4.3539703816301705 -1.6711804342157466
upperneck 13.418552755344736 -5.798854887923804 2.027269919968527
head 7.452812129877021 -2.7977459324558227 0.3011713393075218
lclavicle -1.7288339392202451e-15 1.783627687309423e-15
lhumerus -65.48448648436832 -12.03190003766272 98.6501152211594
lradius 107.54190363335269
lwrist 33.32386037212438
lhand -24.831901155213306 -1.4795651612697818
lfingers 7.12502
lthumb 1.673842148984116 28.508581820295586
rclavicle -1.7288339392202451e-15 1.783627687309423e-15
rhumerus -33.59967683277682 19.540157965919114 -101.62634728224675
rradius 120.27037910710241
rwrist -15.234303739099548
rhand -21.80278102948664 39.40219588533259
rfingers 7.12502
rthumb 4.599346229632465 9.5863721162759
13
root 0.05518799921125159 17.274239391409797 -21.017751830097858 7.865956193589378 -4.015684764540886 -7.760927690011471
lfemur -41.15586708329845 -9.307476070827391 -7.042911340333157
ltibia 24.276407494012332
lfoot -0.9409755020564599 6.07811593165085
ltoes -14.641124322864268
rfemur 10.658106332618331 5.433872511029202 38.501367735448895
rtibia 39.69896673402138
rfoot -12.23352367037616 -6.896732732376039
rtoes -9.151373808322397
lowerback 14.137972035832881 2.692781693881238 8.537985255041296
upperback -2.306528614515133 5.1089246267493635 3.132290352961477
thorax -9.494440053226871 2.0949408747159732 -4.128427399469565
lowerneck -19.861075257639417 -3.620231404678745 -1.468823332723367
upperneck 13.976846327329419 -5.043962476204401 2.0199935838157286
head 7.666676547318392 -2.2774623788523183 0.2677970838749166
lclavicle -1.728834142118488e-15 1.783627681078055e-15
lhumerus -68.04318156465223 -10.26707335419026 97.36394642820773
lradius 105.99770192787373
lwrist 33.02512680583272
lhand -24.92695062420891 -1.6486366600708016
lfingers 7.12502
lthumb 1.582115903462116 28.339970639318885
rclavicle -1.728834142118488e-15 1.783627681078055e-15
rhumerus -31.587459115955888 19.55284666404058 -102.0869325459969
rradius 119.75559352748692
rwrist -14.631318660025192
rhand -18.10536965883057 41.54955966695256
rfingers 7.12502
rthumb 8.168427936492577 11.743206793480699
14
root 0.13195242390417836 17.09589486510135 -19.950591233622845 8.832775264157073 -4.790926370877028 -7.5305183318911
lfemur -39.42927376151686 -7.464281051649111 -7.859105789807172
ltibia 18.585862787828262
lfoot -1.2802558906102264 4.91806299498747
ltoes -11.260811100431994
rfemur 14.41650303181832 6.0653241952306 37.74731360757367
rtibia 40.632077506743755
rfoot -11.921160800545797 -4.65036549873712
rtoes -12.861176316345098
lowerback 12.260854282782132 2.8789086532566297 8.444893971084586
upperback -2.9049489730446663 5.2762566669596564 3.0020892741463743
thorax -9.12077513517421 2.173222593051703 -4.14949634561962
lowerneck -19.400918152977212 -3.431108622299109 -1.690401629220361
upperneck 14.35018707413912 -4.496716202791301 1.956314409915615
head 7.710457589799786 -2.0986723230389503 0.3251878267573216
lclavicle -1.728834008365769e-15 1.783627745001075e-15
lhumerus -70.72412305446096 -7.739116976890645 96.01435013313787
lradius 103.63577069990635
lwrist 31.756743649484097
lhand -24.492661794372932 -0.8211308978714456
lfingers 7.12502
lthumb 2.001549439635862 29.164723640788647
rclavicle -1.728834008365769e-15 1.783627745001075e-15
rhumerus -31.429475080337692 19.29061679082944 -102.11232225907187
rradius 118.6758739126999
rwrist -13.987920029394084
rhand -18.200119376229193 41.60715333142515
rfingers 7.12502
rthumb 8.076942155848736 11.798454778902586
15
root 0.22106444436912806 17.12791424916831 -18.81592328383558 7.927391941983996 -5.179857734863552 -7.112651988352562
lfemur -40.319697772136756 -3.8969939502019106 -10.333775999974089
ltibia 28.290384192173097
lfoot 4.809538413681867 2.1400414887672996
ltoes -4.4923173633507565
rfemur 19.181501324583795 7.114208495458605 36.95230337047383
rtibia 43.751135545833264
rfoot -7.307266245791171 -3.2992098418969107
rtoes -27.52104784219729
lowerback 12.190265519709305 3.0204955603128996 8.137058940158006
upperback -2.547248861111486 5.417678358983705 2.744484645198399
thorax -8.819354138709791 2.2512853160219897 -4.169305525617951
lowerneck -20.970001750852138 -3.4278070481095604 -1.418355374557404
upperneck 14.961091860323133 -4.577566827362041 1.6310953022110741
head 7.958879698589372 -2.1341935261806797 0.13382738003528255
lclavicle -1.7288339901787446e-15 1.7836277689219144e-15
lhumerus -71.85731665026745 -5.544890407847285 94.33016537451348
lradius 99.94502899789521
lwrist 30.806245637818492
lhand -24.874053528420053 -1.2697639831061454
lfingers 7.12502
lthumb 1.6331780865327001 28.717597523902654
rclavicle -1.7288339901787446e-15 1.7836277689219144e-15
rhumerus -33.73443635499193 17.65406465010026 -101.7760407989178
rradius 117.82245145040446
rwrist -13.407779434073582
rhand -21.15590950206144 39.967400377303655
rfingers 7.12502
rthumb 5.223889158827717 10.14901267023426
16
root 0.29932565823536605 17.673620956115965 -17.621587544346518 6.2638629354453865 -3.8137506811712405 -4.766687134073974
lfemur -36.770940519772076 -3.1382721101101616 -15.23367829204956
ltibia 31.0213412945935
lfoot 13.451430929794517 -5.130845248459769
ltoes -8.456270265850154
rfemur 19.253999989539924 4.654541036410054 33.41554240603
rtibia 54.106256456630376
rfoot 2.8485053014108344 -0.7360756285615295
rtoes -31.051652025200625
lowerback 12.053094009471895 2.8044617509925125 5.223800696423688
upperback -3.049565866728831 4.7539684339617105 1.7152806662490183
thorax -9.526954062590324 2.0111295234030457 -2.80139230617536
lowerneck -19.125108230306353 -3.5317707484043988 -1.6644018352673715
upperneck 15.55807546611763 -4.714301018469343 1.9693441831369094
head 7.942518842515681 -2.195722782657214 0.3089694792931951
lclavicle -1.728834118007738e-15 1.7836277429909225e-15
lhumerus -73.35489405249939 -3.659853475470179 92.52818668338392
lradius 95.39212461464439
lwrist 29.027143717235802
lhand -24.827676734369057 -1.889895016125158
lfingers 7.12502
lthumb 1.677930503041922 28.099788199238414
rclavicle -1.728834118007738e-15 1.7836277429909225e-15
rhumerus -39.29398345233566 14.89659697615717 -100.65452956668551
rradius 115.08262023878487
rwrist -12.809055110838916
rhand -20.456399242748134 40.578266512982715
rfingers 7.12502
rthumb 5.89919625269804 10.757638584626244
